<svg xmlns="http://www.w3.org/2000/svg" width="720" height="180" viewBox="0 0 720 180" role="img" aria-label="RoadName Logo">
  <defs>
    <linearGradient id="g" x1="0%" y1="0%" x2="100%" y2="100%">
      <stop offset="0%" stop-color="#F97316"/>
      <stop offset="100%" stop-color="#C2410C"/>
    </linearGradient>
  </defs>
  <rect rx="20" ry="20" width="720" height="180" fill="#FFFFFF"/>
  <g transform="translate(24,24)">
    <rect x="0" y="0" width="132" height="132" rx="18" fill="url(#g)"/>
    <g transform="translate(20,26)" fill="#FFFFFF">
      <path d="M8 86c22-30 32-45 42-74c3-9 15-9 18 0c10 29 20 44 42 74c4 5 0 12-6 12H14c-6 0-10-7-6-12z" opacity="0.95"/>
      <rect x="50" y="8" width="8" height="36" rx="4"/>
      <rect x="50" y="66" width="8" height="12" rx="4"/>
    </g>
  </g>
  <g transform="translate(180,52)">
    <text x="0" y="0" font-family="'Inter', 'Segoe UI', Arial, sans-serif" font-weight="800" font-size="64" fill="#111827">Road</text>
    <text x="2" y="48" font-family="'Inter', 'Segoe UI', Arial, sans-serif" font-weight="600" font-size="20" fill="#6B7280">Buy &amp; Sell Vehicles</text>
  </g>
</svg>

